<svg width="162" height="30" viewBox="0 0 162 30" fill="none" xmlns="http://www.w3.org/2000/svg">
<path d="M49.4427 25.3615C42.1768 25.3615 38.0352 21.5105 38.0352 14.8985V0.755204C38.0352 0.701093 38.079 0.657227 38.1331 0.657227H41.8245C41.8786 0.657227 41.9224 0.701092 41.9224 0.755204V14.6442C41.9224 19.5487 44.1022 21.5832 49.4427 21.5832C54.7832 21.5832 56.963 19.5487 56.963 14.6442V0.755203C56.963 0.701092 57.0069 0.657227 57.061 0.657227H60.7886C60.8427 0.657227 60.8866 0.701092 60.8866 0.755204V14.8985C60.8866 21.5105 56.745 25.3615 49.4427 25.3615Z" fill="white"/>
<path d="M68.2871 24.9002C68.2871 24.9543 68.2432 24.9982 68.1891 24.9982H64.4615C64.4074 24.9982 64.3635 24.9543 64.3635 24.9002V0.755203C64.3635 0.701092 64.4074 0.657227 64.4615 0.657227H69.6433C69.6805 0.657227 69.7144 0.678275 69.731 0.711568L76.7156 14.7532L78.906 19.7444C78.9216 19.78 78.9569 19.803 78.9957 19.803H79.1575C79.1968 19.803 79.2323 19.7795 79.2477 19.7433L81.3658 14.7532L88.2779 0.711932C88.2944 0.67844 88.3285 0.657227 88.3658 0.657227H93.5473C93.6015 0.657227 93.6453 0.701092 93.6453 0.755204V24.9002C93.6453 24.9543 93.6015 24.9982 93.5473 24.9982H89.8197C89.7656 24.9982 89.7217 24.9543 89.7217 24.9002V10.0666L89.8628 6.64467C89.8651 6.58902 89.8206 6.54266 89.7649 6.54266H89.6413C89.602 6.54266 89.5664 6.56622 89.5511 6.60249L88.0868 10.0666L81.3929 23.4908C81.3763 23.524 81.3424 23.545 81.3052 23.545H76.7036C76.6664 23.545 76.6325 23.524 76.6159 23.4908L69.9219 10.0666L68.4577 6.60249C68.4424 6.56622 68.4068 6.54266 68.3675 6.54266H68.2439C68.1882 6.54266 68.1437 6.58902 68.146 6.64467L68.2871 10.0666V24.9002Z" fill="white"/>
<path d="M99.8563 24.9399C99.8406 24.9753 99.8055 24.9982 99.7667 24.9982H95.6219C95.5509 24.9982 95.5035 24.9251 95.5324 24.8603L106.308 0.715276C106.323 0.679967 106.358 0.657227 106.397 0.657227H111.792C111.831 0.657227 111.866 0.679966 111.882 0.715275L122.657 24.8603C122.686 24.9251 122.638 24.9982 122.567 24.9982H118.35C118.311 24.9982 118.276 24.9753 118.26 24.9399L115.514 18.7351C115.499 18.6997 115.464 18.6768 115.425 18.6768H102.692C102.653 18.6768 102.618 18.6997 102.602 18.7351L99.8563 24.9399ZM107.496 7.74154L104.252 15.0149C104.223 15.0797 104.27 15.1528 104.341 15.1528H113.775C113.846 15.1528 113.894 15.0797 113.865 15.0149L110.62 7.74154L109.229 4.35097C109.213 4.31421 109.178 4.29021 109.138 4.29021H108.979C108.939 4.29021 108.903 4.31421 108.888 4.35097L107.496 7.74154Z" fill="white"/>
<path d="M128.458 24.9002C128.458 24.9543 128.414 24.9982 128.36 24.9982H124.633C124.579 24.9982 124.535 24.9543 124.535 24.9002V0.755203C124.535 0.701092 124.579 0.657227 124.633 0.657227H129.815C129.852 0.657227 129.886 0.678275 129.902 0.711568L136.887 14.7532L139.077 19.7444C139.093 19.78 139.128 19.803 139.167 19.803H139.329C139.368 19.803 139.404 19.7795 139.419 19.7433L141.537 14.7532L148.449 0.711932C148.466 0.67844 148.5 0.657227 148.537 0.657227H153.719C153.773 0.657227 153.817 0.701092 153.817 0.755204V24.9002C153.817 24.9543 153.773 24.9982 153.719 24.9982H149.991C149.937 24.9982 149.893 24.9543 149.893 24.9002V10.0666L150.034 6.64467C150.036 6.58902 149.992 6.54266 149.936 6.54266H149.813C149.773 6.54266 149.738 6.56622 149.722 6.60249L148.258 10.0666L141.564 23.4908C141.548 23.524 141.514 23.545 141.476 23.545H136.875C136.838 23.545 136.804 23.524 136.787 23.4908L130.093 10.0666L128.629 6.60249C128.614 6.56622 128.578 6.54266 128.539 6.54266H128.415C128.359 6.54266 128.315 6.58902 128.317 6.64467L128.458 10.0666V24.9002Z" fill="white"/>
<path d="M161.382 24.9002C161.382 24.9543 161.338 24.9982 161.284 24.9982H157.557C157.502 24.9982 157.459 24.9543 157.459 24.9002V0.755203C157.459 0.701092 157.502 0.657227 157.557 0.657227H161.284C161.338 0.657227 161.382 0.701092 161.382 0.755204V24.9002Z" fill="white"/>
<path fill-rule="evenodd" clip-rule="evenodd" d="M76.979 14.6286L79.072 19.398L81.0955 14.6308L88.0112 0.582101C88.0772 0.448135 88.2135 0.363281 88.3629 0.363281H93.5444C93.7608 0.363281 93.9363 0.538744 93.9363 0.75519V24.9002C93.9363 25.1167 93.7608 25.2921 93.5444 25.2921H89.8167C89.6003 25.2921 89.4248 25.1167 89.4248 24.9002V10.0606L89.535 7.38851L88.3511 10.1896L81.653 23.6219C81.5867 23.7549 81.4509 23.8389 81.3023 23.8389H76.7006C76.552 23.8389 76.4162 23.7549 76.3499 23.6219L69.6518 10.1896L68.4679 7.38851L68.5781 10.0606V24.9002C68.5781 25.1167 68.4026 25.2921 68.1862 25.2921H64.4585C64.2421 25.2921 64.0666 25.1167 64.0666 24.9002V0.755189C64.0666 0.538741 64.2421 0.363281 64.4585 0.363281H69.6403C69.7891 0.363281 69.925 0.447477 69.9912 0.580647L76.979 14.6286ZM107.763 7.85724L104.64 14.8589H113.471L110.347 7.85724L109.055 4.71019L107.763 7.85724ZM137.15 14.6286L139.243 19.398L141.267 14.6308L148.182 0.582101C148.248 0.448135 148.385 0.363281 148.534 0.363281H153.716C153.932 0.363281 154.108 0.538744 154.108 0.75519V24.9002C154.108 25.1167 153.932 25.2921 153.716 25.2921H149.988C149.772 25.2921 149.596 25.1167 149.596 24.9002V10.0606L149.706 7.38852L148.522 10.1896L141.824 23.6219C141.758 23.7549 141.622 23.8389 141.474 23.8389H136.872C136.723 23.8389 136.587 23.7549 136.521 23.6219L129.823 10.1896L128.639 7.38852L128.749 10.0606V24.9002C128.749 25.1167 128.574 25.2921 128.357 25.2921H124.63C124.413 25.2921 124.238 25.1167 124.238 24.9002V0.755189C124.238 0.538741 124.413 0.363281 124.63 0.363281H129.812C129.96 0.363281 130.096 0.447477 130.162 0.580647L137.15 14.6286ZM40.8122 22.8258C38.7953 20.9691 37.7383 18.2676 37.7383 14.8985V0.75519C37.7383 0.538746 37.9137 0.363281 38.1302 0.363281H41.8215C42.038 0.363281 42.2134 0.538745 42.2134 0.75519V14.6442C42.2134 17.0601 42.751 18.6959 43.8766 19.7371C45.0078 20.7836 46.7959 21.2893 49.4398 21.2893C52.0836 21.2893 53.8718 20.7836 55.003 19.7371C56.1285 18.6959 56.6661 17.0601 56.6661 14.6442V0.755189C56.6661 0.538743 56.8416 0.363281 57.058 0.363281H60.7857C61.0021 0.363281 61.1776 0.538744 61.1776 0.75519V14.8985C61.1776 18.2676 60.1205 20.9693 58.0989 22.826C56.0808 24.6794 53.1401 25.6554 49.4398 25.6554C45.7573 25.6554 42.8256 24.6792 40.8122 22.8258ZM99.7637 25.2921H95.619C95.3351 25.2921 95.1454 24.9997 95.2611 24.7405L106.036 0.595476C106.099 0.454243 106.239 0.363281 106.394 0.363281H111.789C111.944 0.363281 112.084 0.45424 112.147 0.595476L122.922 24.7405C123.038 24.9997 122.848 25.2921 122.564 25.2921H118.347C118.192 25.2921 118.051 25.2006 117.988 25.0588L115.294 18.9707H102.816L100.122 25.0588C100.059 25.2006 99.9188 25.2921 99.7637 25.2921ZM107.493 7.74153L108.885 4.35096C108.9 4.3142 108.936 4.29019 108.976 4.29019H109.135C109.175 4.29019 109.21 4.3142 109.226 4.35096L110.617 7.74153L113.862 15.0149C113.891 15.0797 113.843 15.1528 113.772 15.1528H104.338C104.267 15.1528 104.22 15.0797 104.249 15.0149L107.493 7.74153ZM161.281 25.2921H157.554C157.337 25.2921 157.162 25.1167 157.162 24.9002V0.755189C157.162 0.538741 157.337 0.363281 157.554 0.363281H161.281C161.498 0.363281 161.673 0.538745 161.673 0.75519V24.9002C161.673 25.1167 161.498 25.2921 161.281 25.2921ZM49.4398 25.3615C42.1738 25.3615 38.0322 21.5105 38.0322 14.8985V0.75519C38.0322 0.701079 38.0761 0.657212 38.1302 0.657212H41.8215C41.8756 0.657212 41.9195 0.701078 41.9195 0.75519V14.6442C41.9195 19.5487 44.0993 21.5832 49.4398 21.5832C54.7803 21.5832 56.96 19.5487 56.96 14.6442V0.755189C56.96 0.701078 57.0039 0.657212 57.058 0.657212H60.7857C60.8398 0.657212 60.8837 0.701078 60.8837 0.75519V14.8985C60.8837 21.5105 56.7421 25.3615 49.4398 25.3615ZM68.2842 24.9002C68.2842 24.9543 68.2403 24.9982 68.1862 24.9982H64.4585C64.4044 24.9982 64.3605 24.9543 64.3605 24.9002V0.755189C64.3605 0.701078 64.4044 0.657212 64.4585 0.657212H69.6403C69.6775 0.657212 69.7115 0.678261 69.728 0.711554L76.7127 14.7532L78.9031 19.7444C78.9187 19.78 78.9539 19.803 78.9928 19.803H79.1546C79.1939 19.803 79.2294 19.7795 79.2448 19.7433L81.3629 14.7532L88.275 0.711918C88.2914 0.678426 88.3255 0.657212 88.3629 0.657212H93.5444C93.5985 0.657212 93.6424 0.701078 93.6424 0.75519V24.9002C93.6424 24.9543 93.5985 24.9982 93.5444 24.9982H89.8167C89.7626 24.9982 89.7187 24.9543 89.7187 24.9002V10.0666L89.8599 6.64466C89.8622 6.58901 89.8177 6.54264 89.762 6.54264H89.6384C89.599 6.54264 89.5635 6.56621 89.5481 6.60247L88.0839 10.0666L81.3899 23.4907C81.3734 23.524 81.3394 23.545 81.3023 23.545H76.7006C76.6635 23.545 76.6295 23.524 76.613 23.4907L69.919 10.0666L68.4548 6.60247C68.4394 6.56621 68.4039 6.54264 68.3645 6.54264H68.2409C68.1852 6.54264 68.1408 6.58901 68.143 6.64466L68.2842 10.0666V24.9002ZM99.7637 24.9982C99.8025 24.9982 99.8376 24.9753 99.8533 24.9399L102.599 18.7351C102.615 18.6997 102.65 18.6768 102.689 18.6768H115.422C115.461 18.6768 115.496 18.6997 115.511 18.7351L118.257 24.9399C118.273 24.9753 118.308 24.9982 118.347 24.9982H122.564C122.635 24.9982 122.683 24.9251 122.654 24.8603L111.879 0.715261C111.863 0.679952 111.828 0.657212 111.789 0.657212H106.394C106.355 0.657212 106.32 0.679953 106.305 0.715262L95.5295 24.8603C95.5006 24.9251 95.548 24.9982 95.619 24.9982H99.7637ZM128.455 24.9002C128.455 24.9543 128.412 24.9982 128.357 24.9982H124.63C124.576 24.9982 124.532 24.9543 124.532 24.9002V0.755189C124.532 0.701078 124.576 0.657212 124.63 0.657212H129.812C129.849 0.657212 129.883 0.678261 129.899 0.711554L136.884 14.7532L139.074 19.7444C139.09 19.78 139.125 19.803 139.164 19.803H139.326C139.365 19.803 139.401 19.7795 139.416 19.7433L141.534 14.7532L148.446 0.711918C148.463 0.678426 148.497 0.657212 148.534 0.657212H153.716C153.77 0.657212 153.814 0.701078 153.814 0.75519V24.9002C153.814 24.9543 153.77 24.9982 153.716 24.9982H149.988C149.934 24.9982 149.89 24.9543 149.89 24.9002V10.0666L150.031 6.64466C150.033 6.58901 149.989 6.54264 149.933 6.54264H149.81C149.77 6.54264 149.735 6.56621 149.719 6.60247L148.255 10.0666L141.561 23.4907C141.545 23.524 141.511 23.545 141.474 23.545H136.872C136.835 23.545 136.801 23.524 136.784 23.4907L130.09 10.0666L128.626 6.60247C128.611 6.56621 128.575 6.54264 128.536 6.54264H128.412C128.356 6.54264 128.312 6.58901 128.314 6.64466L128.455 10.0666V24.9002ZM161.281 24.9982C161.335 24.9982 161.379 24.9543 161.379 24.9002V0.75519C161.379 0.701078 161.335 0.657212 161.281 0.657212H157.554C157.5 0.657212 157.456 0.701078 157.456 0.755189V24.9002C157.456 24.9543 157.5 24.9982 157.554 24.9982H161.281Z" fill="white"/>
<path fill-rule="evenodd" clip-rule="evenodd" d="M161.569 27.5414L37.6235 27.4204L37.6211 29.8424L161.566 29.9634L161.569 27.5414Z" fill="white"/>
<path d="M0 0.717773H29.7255V29.8422H0V0.717773Z" fill="white"/>
<path fill-rule="evenodd" clip-rule="evenodd" d="M16.0746 23.0623L23.2284 16.0532L24.9234 17.7832L17.5811 24.977H27.3483V27.399H2.37891V24.977H12.0925L4.75019 17.7832L6.44522 16.0532L13.6526 23.1148V13.082H16.0746V23.0623Z" fill="black"/>
</svg>
