<svg width="164" height="30" viewBox="0 0 164 30" fill="none" xmlns="http://www.w3.org/2000/svg">
<path d="M50.1086 25.336C42.7444 25.336 38.5469 21.433 38.5469 14.7316V0.397153C38.5469 0.34231 38.5913 0.297852 38.6462 0.297852H42.3874C42.4422 0.297852 42.4867 0.34231 42.4867 0.397153V14.4738C42.4867 19.4446 44.6959 21.5066 50.1086 21.5066C55.5212 21.5066 57.7305 19.4446 57.7305 14.4738V0.397152C57.7305 0.34231 57.7749 0.297852 57.8298 0.297852H61.6078C61.6627 0.297852 61.7071 0.34231 61.7071 0.397153V14.7316C61.7071 21.433 57.5096 25.336 50.1086 25.336Z" fill="black"/>
<path d="M69.2076 24.8685C69.2076 24.9233 69.1632 24.9678 69.1083 24.9678H65.3303C65.2754 24.9678 65.231 24.9233 65.231 24.8685V0.397152C65.231 0.342309 65.2754 0.297852 65.3303 0.297852H70.5821C70.6198 0.297852 70.6543 0.319185 70.671 0.352927L77.75 14.5843L79.97 19.643C79.9859 19.6791 80.0216 19.7024 80.061 19.7024H80.225C80.2648 19.7024 80.3008 19.6786 80.3164 19.6419L82.4631 14.5843L89.4686 0.353296C89.4853 0.319352 89.5198 0.297852 89.5577 0.297852H94.8092C94.8641 0.297852 94.9085 0.34231 94.9085 0.397153V24.8685C94.9085 24.9233 94.8641 24.9678 94.8092 24.9678H91.0312C90.9763 24.9678 90.9319 24.9233 90.9319 24.8685V9.83443L91.0749 6.36621C91.0772 6.30981 91.0321 6.26281 90.9757 6.26281H90.8504C90.8105 6.26281 90.7745 6.2867 90.759 6.32345L89.2749 9.83443L82.4905 23.4399C82.4737 23.4736 82.4393 23.4949 82.4017 23.4949H77.7379C77.7002 23.4949 77.6658 23.4736 77.649 23.4399L70.8646 9.83443L69.3805 6.32345C69.365 6.2867 69.329 6.26281 69.2891 6.26281H69.1638C69.1074 6.26281 69.0623 6.30981 69.0646 6.36621L69.2076 9.83443V24.8685Z" fill="black"/>
<path d="M101.203 24.9086C101.188 24.9446 101.152 24.9678 101.113 24.9678H96.9118C96.8399 24.9678 96.7918 24.8937 96.8211 24.828L107.742 0.356685C107.758 0.320899 107.793 0.297852 107.833 0.297852H113.3C113.34 0.297852 113.375 0.320899 113.391 0.356685L124.312 24.828C124.341 24.8937 124.293 24.9678 124.221 24.9678H119.947C119.908 24.9678 119.872 24.9446 119.856 24.9086L117.073 18.6201C117.057 18.5841 117.022 18.5609 116.982 18.5609H104.077C104.038 18.5609 104.002 18.5841 103.986 18.6201L101.203 24.9086ZM108.946 7.4779L105.658 14.8496C105.629 14.9153 105.677 14.9893 105.749 14.9893H115.311C115.383 14.9893 115.431 14.9153 115.401 14.8496L112.113 7.4779L110.702 4.04152C110.687 4.00426 110.651 3.97993 110.61 3.97993H110.449C110.409 3.97993 110.372 4.00425 110.357 4.04151L108.946 7.4779Z" fill="black"/>
<path d="M130.192 24.8685C130.192 24.9233 130.148 24.9678 130.093 24.9678H126.315C126.26 24.9678 126.215 24.9233 126.215 24.8685V0.397152C126.215 0.342309 126.26 0.297852 126.315 0.297852H131.566C131.604 0.297852 131.639 0.319185 131.655 0.352927L138.734 14.5843L140.954 19.643C140.97 19.6791 141.006 19.7024 141.045 19.7024H141.209C141.249 19.7024 141.285 19.6786 141.301 19.6419L143.447 14.5843L150.453 0.353296C150.47 0.319352 150.504 0.297852 150.542 0.297852H155.794C155.848 0.297852 155.893 0.34231 155.893 0.397153V24.8685C155.893 24.9233 155.848 24.9678 155.794 24.9678H152.016C151.961 24.9678 151.916 24.9233 151.916 24.8685V9.83443L152.059 6.36621C152.062 6.30981 152.017 6.26281 151.96 6.26281H151.835C151.795 6.26281 151.759 6.2867 151.743 6.32345L150.259 9.83443L143.475 23.4399C143.458 23.4736 143.424 23.4949 143.386 23.4949H138.722C138.685 23.4949 138.65 23.4736 138.633 23.4399L131.849 9.83443L130.365 6.32345C130.349 6.2867 130.313 6.26281 130.273 6.26281H130.148C130.092 6.26281 130.047 6.30981 130.049 6.36621L130.192 9.83443V24.8685Z" fill="black"/>
<path d="M163.561 24.8685C163.561 24.9233 163.516 24.9678 163.462 24.9678H159.683C159.629 24.9678 159.584 24.9233 159.584 24.8685V0.397152C159.584 0.342309 159.629 0.297852 159.683 0.297852H163.462C163.516 0.297852 163.561 0.34231 163.561 0.397153V24.8685Z" fill="black"/>
<path fill-rule="evenodd" clip-rule="evenodd" d="M78.0171 14.4581L80.1384 19.2919L82.1893 14.4603L89.1984 0.221777C89.2653 0.0860001 89.4035 0 89.5548 0H94.8063C95.0257 0 95.2035 0.177834 95.2035 0.397204V24.8685C95.2035 25.0879 95.0257 25.2657 94.8063 25.2657H91.0283C90.8089 25.2657 90.6311 25.0879 90.6311 24.8685V9.82834L90.7428 7.12016L89.5428 9.95906L82.7542 23.5729C82.687 23.7077 82.5494 23.7929 82.3988 23.7929H77.735C77.5844 23.7929 77.4467 23.7077 77.3795 23.5729L70.5909 9.95906L69.391 7.12017L69.5027 9.82834V24.8685C69.5027 25.0879 69.3248 25.2657 69.1055 25.2657H65.3274C65.108 25.2657 64.9302 25.0879 64.9302 24.8685V0.397204C64.9302 0.177831 65.108 0 65.3274 0H70.5792C70.73 0 70.8677 0.0853334 70.9349 0.220303L78.0171 14.4581ZM109.217 7.59522L106.052 14.6915H115.002L111.836 7.59522L110.527 4.40565L109.217 7.59522ZM139.001 14.4581L141.123 19.2919L143.174 14.4603L150.183 0.221777C150.25 0.0860002 150.388 0 150.539 0H155.791C156.01 0 156.188 0.177834 156.188 0.397204V24.8685C156.188 25.0879 156.01 25.2657 155.791 25.2657H152.013C151.793 25.2657 151.615 25.0879 151.615 24.8685V9.82834L151.727 7.12017L150.527 9.95906L143.739 23.5729C143.671 23.7077 143.534 23.7929 143.383 23.7929H138.719C138.569 23.7929 138.431 23.7077 138.364 23.5729L131.575 9.95906L130.375 7.12018L130.487 9.82834V24.8685C130.487 25.0879 130.309 25.2657 130.09 25.2657H126.312C126.092 25.2657 125.915 25.0879 125.915 24.8685V0.397204C125.915 0.177831 126.092 0 126.312 0H131.564C131.714 0 131.852 0.0853334 131.919 0.220303L139.001 14.4581ZM41.3615 22.766C39.3174 20.8843 38.2461 18.1462 38.2461 14.7316V0.397205C38.2461 0.177835 38.4239 0 38.6433 0H42.3845C42.6039 0 42.7817 0.177835 42.7817 0.397204V14.4739C42.7817 16.9225 43.3266 18.5804 44.4673 19.6356C45.6138 20.6963 47.4262 21.2088 50.1057 21.2088C52.7853 21.2088 54.5976 20.6963 55.7441 19.6356C56.8848 18.5804 57.4297 16.9225 57.4297 14.4739V0.397204C57.4297 0.177833 57.6075 0 57.8269 0H61.6049C61.8243 0 62.0022 0.177834 62.0022 0.397204V14.7316C62.0022 18.1463 60.9308 20.8845 58.8819 22.7663C56.8365 24.6447 53.856 25.6339 50.1057 25.6339C46.3734 25.6339 43.4022 24.6446 41.3615 22.766ZM101.11 25.2657H96.9089C96.6212 25.2657 96.429 24.9694 96.5462 24.7066L107.467 0.235333C107.531 0.0921914 107.673 0 107.83 0H113.298C113.454 0 113.596 0.0921877 113.66 0.235332L124.581 24.7066C124.698 24.9694 124.506 25.2657 124.218 25.2657H119.944C119.787 25.2657 119.644 25.173 119.581 25.0292L116.85 18.8589H104.204L101.473 25.0292C101.409 25.173 101.267 25.2657 101.11 25.2657ZM108.944 7.47795L110.354 4.04157C110.37 4.00431 110.406 3.97998 110.446 3.97998H110.608C110.648 3.97998 110.684 4.00431 110.699 4.04157L112.11 7.47795L115.398 14.8496C115.428 14.9153 115.38 14.9894 115.308 14.9894H105.746C105.674 14.9894 105.626 14.9153 105.655 14.8496L108.944 7.47795ZM163.459 25.2657H159.681C159.461 25.2657 159.283 25.0879 159.283 24.8685V0.397204C159.283 0.177831 159.461 0 159.681 0H163.459C163.678 0 163.856 0.177834 163.856 0.397204V24.8685C163.856 25.0879 163.678 25.2657 163.459 25.2657ZM50.1057 25.336C42.7416 25.336 38.544 21.433 38.544 14.7316V0.397205C38.544 0.342362 38.5885 0.297903 38.6433 0.297903H42.3845C42.4394 0.297903 42.4838 0.342362 42.4838 0.397204V14.4739C42.4838 19.4447 44.6931 21.5067 50.1057 21.5067C55.5184 21.5067 57.7276 19.4447 57.7276 14.4739V0.397204C57.7276 0.342362 57.7721 0.297903 57.8269 0.297903H61.6049C61.6598 0.297903 61.7043 0.342362 61.7043 0.397204V14.7316C61.7043 21.433 57.5067 25.336 50.1057 25.336ZM69.2048 24.8685C69.2048 24.9234 69.1603 24.9678 69.1055 24.9678H65.3274C65.2726 24.9678 65.2281 24.9234 65.2281 24.8685V0.397204C65.2281 0.342361 65.2726 0.297903 65.3274 0.297903H70.5792C70.6169 0.297903 70.6514 0.319237 70.6682 0.352979L77.7472 14.5844L79.9672 19.643C79.983 19.6791 80.0187 19.7024 80.0581 19.7024H80.2221C80.2619 19.7024 80.2979 19.6786 80.3135 19.6419L82.4602 14.5844L89.4657 0.353348C89.4824 0.319403 89.517 0.297903 89.5548 0.297903H94.8063C94.8612 0.297903 94.9056 0.342362 94.9056 0.397204V24.8685C94.9056 24.9234 94.8612 24.9678 94.8063 24.9678H91.0283C90.9735 24.9678 90.929 24.9234 90.929 24.8685V9.83448L91.072 6.36626C91.0743 6.30986 91.0293 6.26287 90.9728 6.26287H90.8475C90.8076 6.26287 90.7716 6.28675 90.7561 6.32351L89.2721 9.83448L82.4876 23.44C82.4708 23.4737 82.4364 23.495 82.3988 23.495H77.735C77.6973 23.495 77.6629 23.4737 77.6461 23.44L70.8617 9.83448L69.3777 6.32351C69.3621 6.28675 69.3261 6.26287 69.2862 6.26287H69.161C69.1045 6.26287 69.0594 6.30986 69.0617 6.36626L69.2048 9.83448V24.8685ZM101.11 24.9678C101.149 24.9678 101.185 24.9446 101.201 24.9087L103.983 18.6201C103.999 18.5842 104.035 18.561 104.074 18.561H116.979C117.019 18.561 117.054 18.5842 117.07 18.6201L119.853 24.9087C119.869 24.9446 119.905 24.9678 119.944 24.9678H124.218C124.29 24.9678 124.338 24.8937 124.309 24.828L113.388 0.356736C113.372 0.32095 113.337 0.297903 113.298 0.297903H107.83C107.791 0.297903 107.755 0.320951 107.739 0.356737L96.8183 24.828C96.7889 24.8937 96.837 24.9678 96.9089 24.9678H101.11ZM130.189 24.8685C130.189 24.9234 130.145 24.9678 130.09 24.9678H126.312C126.257 24.9678 126.212 24.9234 126.212 24.8685V0.397204C126.212 0.342361 126.257 0.297903 126.312 0.297903H131.564C131.601 0.297903 131.636 0.319237 131.653 0.352979L138.732 14.5844L140.952 19.643C140.967 19.6791 141.003 19.7024 141.042 19.7024H141.206C141.246 19.7024 141.282 19.6786 141.298 19.6419L143.445 14.5844L150.45 0.353348C150.467 0.319403 150.501 0.297903 150.539 0.297903H155.791C155.846 0.297903 155.89 0.342362 155.89 0.397204V24.8685C155.89 24.9234 155.846 24.9678 155.791 24.9678H152.013C151.958 24.9678 151.913 24.9234 151.913 24.8685V9.83448L152.056 6.36626C152.059 6.30986 152.014 6.26287 151.957 6.26287H151.832C151.792 6.26287 151.756 6.28675 151.74 6.32351L150.256 9.83448L143.472 23.44C143.455 23.4737 143.421 23.495 143.383 23.495H138.719C138.682 23.495 138.647 23.4737 138.63 23.44L131.846 9.83448L130.362 6.32351C130.347 6.28675 130.31 6.26287 130.271 6.26287H130.145C130.089 6.26287 130.044 6.30986 130.046 6.36626L130.189 9.83448V24.8685ZM163.459 24.9678C163.513 24.9678 163.558 24.9234 163.558 24.8685V0.397204C163.558 0.342362 163.513 0.297903 163.459 0.297903H159.681C159.626 0.297903 159.581 0.342361 159.581 0.397204V24.8685C159.581 24.9234 159.626 24.9678 159.681 24.9678H163.459Z" fill="black"/>
<path fill-rule="evenodd" clip-rule="evenodd" d="M163.751 27.5453L38.1313 27.4227L38.1289 29.8774L163.749 30L163.751 27.5453Z" fill="black"/>
<path d="M0 0.359375H30.1272V29.8773H0V0.359375Z" fill="black"/>
<path fill-rule="evenodd" clip-rule="evenodd" d="M16.2909 23.0058L23.5414 15.9019L25.2593 17.6553L17.8178 24.9464H27.717V27.4011H2.41016V24.9464H12.255L4.81349 17.6553L6.53142 15.9019L13.8362 23.059V12.8906H16.2909V23.0058Z" fill="white"/>
</svg>
