<svg width="254" height="258" viewBox="0 0 254 258" fill="none" xmlns="http://www.w3.org/2000/svg">
<path d="M126.968 0V128.934M126.968 128.934V257.868M126.968 128.934L204.82 233.244M126.968 128.934L49.1155 24.6243M126.968 128.934L1 89.0914M126.968 128.934L252.936 168.777M126.968 128.934L252.936 89.0914M126.968 128.934L1 168.777M126.968 128.934L49.1155 233.244M126.968 128.934L204.82 24.6243M126.968 128.934L158.893 30.3684M126.968 128.934L95.0425 227.5M126.968 128.934L160.655 226.942M126.968 128.934L93.2801 30.9259M126.968 128.934L40.535 68.919M126.968 128.934L213.4 188.948M126.968 128.934L233.131 128.032M126.968 128.934L20.8041 129.836M126.968 128.934L41.6241 190.408M126.968 128.934L212.311 67.4597" stroke="black" stroke-width="2" stroke-linejoin="round"/>
</svg>
